<svg width="93" height="18" fill="none" xmlns="http://www.w3.org/2000/svg"><path fill-rule="evenodd" clip-rule="evenodd" d="M21.7 8.93h3.14c1.33 0 2.9-.38 2.9-2.16 0-.9-.5-1.44-1.5-1.65V5.1c.83-.28 1.31-.8 1.31-1.74 0-1.28-1.04-1.89-2.42-1.89H21.7v7.46Zm1.98-3.17h.61c.69 0 1.47.08 1.47.9 0 .75-.76.86-1.49.86h-.59V5.76Zm0-2.88h.58c.66 0 1.3.07 1.3.75 0 .63-.67.79-1.32.79h-.56V2.88Z" fill="#1A171B"/><path d="M34.47 3.36h-1.92v2.35c0 1.2-.4 1.74-1.2 1.74-.52 0-.88-.35-.88-1.4V3.36h-1.93v3.47c0 1.16.61 2.22 2.13 2.22.87 0 1.64-.35 2.03-1.15h.02v1.03h1.75V3.36ZM35.5 8.93h4.8V7.52h-2.6l2.55-2.62V3.36h-4.69v1.41h2.49L35.51 7.4v1.54ZM41.17 8.93h4.78V7.52h-2.58l2.54-2.62V3.36h-4.69v1.41h2.5L41.16 7.4v1.54Z" fill="#1A171B"/><path fill-rule="evenodd" clip-rule="evenodd" d="M47.1 8.93h1.93V3.36h-1.92v5.57Zm1.93-7.89h-1.92v1.41h1.92v-1.4Z" fill="#1A171B"/><path d="M60.24 1.47h-1.99v4.3c0 .98-.27 1.81-1.28 1.81-1.02 0-1.28-.83-1.28-1.82V1.47H53.7V6.1c0 2.04 1.33 2.95 3.27 2.95s3.27-.91 3.27-2.95V1.47ZM61.23 8.93h1.92V6.58c0-1.2.4-1.74 1.2-1.74.52 0 .89.35.89 1.4v2.69h1.92V5.46c0-1.16-.61-2.23-2.13-2.23-.87 0-1.64.36-2.03 1.16h-.02V3.36h-1.75v5.57Z" fill="#1A171B"/><path fill-rule="evenodd" clip-rule="evenodd" d="M68.34 8.93h1.92V3.36h-1.92v5.57Zm1.92-7.89h-1.92v1.41h1.92v-1.4Z" fill="#1A171B"/><path d="M76.02 3.54a3.45 3.45 0 0 0-1.53-.3c-1.83 0-3.23 1.06-3.23 2.91 0 1.84 1.4 2.9 3.23 2.9.52 0 1.1-.08 1.57-.24l-.04-1.43c-.32.17-.76.26-1.2.26-.83 0-1.58-.57-1.58-1.46 0-.96.64-1.54 1.48-1.54.46 0 .8.1 1.16.31l.14-1.4Z" fill="#1A171B"/><path fill-rule="evenodd" clip-rule="evenodd" d="M82.55 6.7v-.35c0-1.65-.75-3.12-2.81-3.12-1.73 0-2.98 1.07-2.98 2.9 0 1.85 1.4 2.93 3.23 2.93.72 0 1.42-.11 2.04-.36V7.35a3.6 3.6 0 0 1-1.7.42c-.93 0-1.52-.3-1.63-1.06h3.85Zm-3.87-1.08c.04-.65.37-1.17 1.07-1.17.77 0 1.07.52 1.07 1.17h-2.14Z" fill="#1A171B"/><path d="M83.52 8.93h1.92V6.58c0-1.2.4-1.74 1.09-1.74.54 0 .77.47.77 1.1v2.99h1.92V6.58c0-1.2.4-1.74 1.09-1.74.54 0 .77.47.77 1.1v2.99H93V5.65c0-1.5-.36-2.42-1.96-2.42a2.2 2.2 0 0 0-1.98 1.07c-.3-.72-.95-1.07-1.74-1.07-.88 0-1.65.36-2.03 1.16h-.02V3.36h-1.75v5.57Z" fill="#1A171B"/><path d="M2.7 5.7H0V2.56s1.71.1 3.19-.68A2.33 2.33 0 0 0 4.47 0h12.21v10.56c0 5.03-.67 6.48-6.95 6.48-6.42 0-7.02-1.45-7.02-6.48V5.7Z" fill="#0071B9"/><path d="M7.69 0h4.01v13.03H7.7V0Z" fill="#1A171B"/><path d="M10.97.33H8.42v.98h2.55V.33ZM8.42 6.91v1.14h1.75v.28H8.42v1.18h1.62c.8 0 .96-.1.96-1.3s-.17-1.3-.96-1.3H8.42Z" fill="#fff"/><path fill-rule="evenodd" clip-rule="evenodd" d="M10.96 12.37v-1.94c0-.56-.32-.73-.66-.73-.51 0-.56.32-.59.65-.03-.32-.22-.63-.65-.63-.39 0-.64.17-.64.68v1.97h2.54ZM10 11.34v-.42c0-.15.08-.2.19-.2.1 0 .18.05.18.2v.42H10Zm-.91 0v-.4c0-.15.06-.2.18-.2.11 0 .19.05.19.21v.4h-.37Z" fill="#fff"/><path d="M10.96 3.97v-2.5h-.84v.96l-.92-.95h-.78v2.5h.92v-1l1.05.99h.57ZM10.96 6.69v-2.5h-.84v.96L9.2 4.2h-.78v2.5h.92v-1l1.05.99h.57Z" fill="#fff"/></svg>