<svg width="85" height="24" fill="none" xmlns="http://www.w3.org/2000/svg"><path d="M30.34.4h8.5l-.06.07-19.31 22.96-8.35.01L30.34.4Zm20.11 18.47v-4.51h5.04l5.04.01.2.07c.43.15.78.43.97.8.2.4.2.12.2 4.34v3.8h-2.28v-3.2c0-3.46 0-3.33-.15-3.55a.76.76 0 0 0-.2-.16l-.13-.08h-.94l-.95-.02v7.01h-2.21l-.01-3.27-.01-3.26-.09-.14a.74.74 0 0 0-.23-.23l-.14-.09h-.91l-.92-.02v7.01h-2.28v-4.51Zm-19.77 4.28a1.95 1.95 0 0 1-1.39-1.34c-.04-.16-.05-.34-.05-3.03v-2.85l.08-.23c.12-.32.26-.55.5-.79.16-.15.28-.24.45-.32.48-.23.12-.22 4.44-.23h3.86v1.99h-3.36c-3.36 0-3.37 0-3.5.06a.46.46 0 0 0-.2.2l-.08.13v2.1c0 2.08 0 2.1.06 2.22a.7.7 0 0 0 .19.2l.12.09h3.38l3.39.01v1.85h-3.84c-3.66 0-3.85 0-4.05-.06Zm10.18 0a2.04 2.04 0 0 1-.76-.39 1.8 1.8 0 0 1-.52-.69c-.17-.36-.17-.32-.17-3.27 0-3.04-.01-2.91.22-3.38.18-.36.46-.65.81-.83.49-.24.1-.22 4.75-.22h4.12v.99l.02.99h-3.69l-3.69.01-.1.07a.68.68 0 0 0-.17.19l-.07.12v2.1c0 2.08 0 2.1.06 2.22a.7.7 0 0 0 .18.2l.13.09h3.67l3.68.01v1.85h-4.14c-3.93 0-4.14 0-4.33-.06Zm23.63.01a2 2 0 0 1-1.43-1.4c-.05-.17-.05-.35-.05-2.96 0-3.11-.01-2.92.2-3.38.15-.3.54-.69.85-.84.46-.22.08-.2 4.7-.22h4.15v1.99h-3.65c-3.52 0-3.65 0-3.75.05a.46.46 0 0 0-.25.27c-.04.1-.05.38-.05 2.19 0 1.68.01 2.1.04 2.17.05.12.22.27.36.3.07.02 1.28.03 3.7.03h3.6v1.85H68.8c-3.41 0-4.15-.01-4.3-.05Zm9.43-1.04v-1.06l.07-.15c.14-.3.25-.37 1.69-1.28l1.35-.86c0-.02-1.8-1.17-2.43-1.57-.38-.24-.48-.33-.58-.52l-.07-.14v-2.18h2.22v1.34l1.56.98c.86.54 1.59.98 1.61.98.02 0 .76-.45 1.62-1l1.58-1v-1.3h2.22v1.03c0 1 0 1.05-.06 1.2-.1.3-.27.42-1.72 1.33-.73.45-1.32.83-1.31.84 0 .02 2.14 1.4 2.55 1.65.22.14.38.3.45.46.06.13.06.19.06 1.22v1.1l-.57-.01c-.3 0-.8 0-1.1-.02l-.55-.02v-1.31l-1.56-.98-1.6-.99c-.03 0-.76.46-1.63 1l-1.58 1v1.32h-2.22v-1.06ZM43.7 18.86v-.9h5.63v1.79H43.7v-.9Zm23.59 0v-.9h5.62v1.79H67.3v-.9Z" fill="#293064"/><path d="M0 23.42 19.18.43h8.51l-.07.08L8.29 23.47H4.13c-3.97 0-4.17 0-4.13-.05Z" fill="#DF343D"/></svg>