<svg width="86" height="7" fill="none" xmlns="http://www.w3.org/2000/svg"><path fill-rule="evenodd" clip-rule="evenodd" d="M12.68.4h-1.6v6.02h1.6V.4ZM10.19 2.8H7.6V1.65h2.6V.4H6.06v6.02h4.13V5.18H7.6V4h2.6V2.79ZM5.11.4H3.54v2.35H0v3.67h1.57V4.04h1.97v2.38h1.57V.4ZM1.57.4H0v1.56h1.57V.4ZM31.88 2.8h.78c.41 0 .58-.06.7-.25a.68.68 0 0 0-.03-.78c-.18-.22-.48-.22-.74-.24h-.7v1.27Zm.79 2.44c.2 0 .33-.02.43-.06a.55.55 0 0 0 .38-.56c0-.06 0-.2-.1-.36-.19-.28-.51-.3-.82-.3h-.68v1.27h.79Zm-.79 1.15h-1.52v-6h2.5c.86.01 1.3.14 1.63.42.22.18.48.5.48 1.17 0 .12 0 .2-.02.31-.03.15-.12.6-.51.88-.14.1-.27.16-.42.22.14.05.46.16.71.46.23.27.34.59.34.94 0 .83-.49 1.2-.78 1.37-.38.2-.81.25-1.62.24h-.79ZM16 5.21c.57-.02 1.11-.14 1.53-.62.18-.2.43-.58.43-1.23 0-.51-.17-.85-.29-1.02-.4-.61-1.04-.75-1.75-.75l-.7.01v3.6l.78.01Zm-.78 1.2h-1.6v-6h1.81c.28-.02.56 0 .83 0h.52c.28.03 1.04.09 1.71.6.43.31 1.11 1.03 1.1 2.34 0 .19 0 .6-.18 1.1a2.94 2.94 0 0 1-1.9 1.81c-.3.1-.66.16-1.32.16H16l-.78-.02Zm11.73-6h-1.58v6h4.2v-1.3h-2.62V.4Zm-2.49 2.38h-2.59V1.65h2.6V.4h-4.13v6.02h4.12V5.18h-2.59V4h2.6V2.79Zm15.43 0H37.3V1.65h2.6V.4h-4.14v6.02h4.13V5.18H37.3V4h2.6V2.79ZM49.9 5.15V3.18h1.54l-.06 2.92c-.24.08-.48.13-.72.19a7.29 7.29 0 0 1-1.5.2h-.04c-.8 0-1.53-.19-2.16-.7a2.86 2.86 0 0 1-1.07-2.31A3.1 3.1 0 0 1 49.24.34c.95 0 1.6.23 1.96.36l-.4 1.1-.37-.14c-.3-.1-.66-.16-.98-.16-.13 0-.49.02-.86.18-1.01.45-1.1 1.49-1.1 1.8a1.77 1.77 0 0 0 1.82 1.81c.27 0 .49-.07.6-.14Zm-7.6-2.17V1.54h.7c.11.01.25.01.36.05.45.12.49.51.49.66 0 .25-.1.4-.17.47-.2.2-.42.23-.69.25H42.31Zm3.51 3.42L44.76 4.5c-.17-.25-.35-.56-.63-.72a.35.35 0 0 0-.17-.07c.1-.01.18-.02.28-.05.17-.04.32-.12.38-.14.17-.1.31-.21.43-.35.23-.29.34-.7.34-1.06.01-.47-.17-.8-.27-.96-.47-.7-1.31-.75-2.07-.75-.54 0-1.08-.02-1.6 0h-.67V6.4h1.53V4.14l.22.01c.12 0 .23.03.32.08.14.07.25.26.4.56l.82 1.61h1.74Zm34.66-6V1h1.92v5.44h.76V1h1.91V.41h-4.59Zm-5.53.23v5.8h.68V2.69l-.01-.57-.06-.73c.23.42.26.47.7 1.07l1.22 1.66 1.71 2.37.59-.25V.41h-.68v3.8c0 .52 0 .74.08 1.24a6.6 6.6 0 0 0-.84-1.33c-.39-.55-.8-1.09-1.2-1.63L75.58.36l-.64.27ZM70.68.41v6.04h3.25v-.61h-2.5V3.65h2.37v-.6h-2.37V.99h2.44V.41h-3.19Zm-7.25 0-1.07 5.95.7.12.3-1.78c.09-.56.2-1.12.28-1.68.1-.6.16-1.22.23-1.83.08.3.15.6.24.89l.2.52c.2.52.37 1.04.56 1.57l.82 2.28h.7c.37-1.01.75-2.02 1.14-3.02.06-.2.14-.4.22-.6l.28-.72.32-.94c0 .66.05 1.02.22 2.22.16 1.04.3 2.08.47 3.13l.71-.15-.96-5.96h-.74l-.65 1.65c-.17.43-.32.87-.5 1.3-.15.41-.32.8-.48 1.22-.13.35-.25.72-.37 1.09l-.21-.72c-.11-.34-.25-.67-.37-1.01l-.42-1.22c-.26-.77-.55-1.53-.82-2.3h-.8Zm-5.15 0v6.04h3.25v-.61h-2.51V3.65h2.38v-.6h-2.37V.99h2.44V.41h-3.2Zm-.82.5c-.13-.07-.26-.15-.4-.2a4.22 4.22 0 0 0-1.59-.33 3.1 3.1 0 0 0-2.49 1.14 3.13 3.13 0 0 0-.68 1.97c0 .89.35 1.76 1 2.34.78.68 1.65.74 2.02.74 1.04-.01 1.75-.41 2.09-.6l-.27-.5c-.55.26-1.06.5-1.7.5-1.06 0-1.63-.6-1.86-.91a2.64 2.64 0 0 1-.48-1.58c0-.34.05-1.3.83-1.96a2.33 2.33 0 0 1 1.55-.55c.66 0 1.02.14 1.28.26l.4.22.3-.54Z" fill="#008238"/></svg>