<svg width="91" height="20" fill="none" xmlns="http://www.w3.org/2000/svg"><path d="M0 9.21v8.46H9.63V13.4H4.84V.75H0V9.2Z" fill="#5F5046"/><path d="M12.07 3.7v2.96h-6v4.28h6v6.73h4.86V.75h-4.86V3.7Z" fill="#877873"/><path d="M81.56 10.5a.81.81 0 0 0-.59.45.6.6 0 0 0-.07.31.78.78 0 0 0 .43.76c.14.07.25.09.43.08.15 0 .19-.02.3-.07.47-.24.6-.82.28-1.24a.84.84 0 0 0-.78-.3ZM36.68 10.64c-.12 0-.28.03-.36.04-.44.1-.83.39-1.03.76-.12.24-.17.52-.18 1.02l-.02.34h-.69V14h.7v3.67h1.4V14h1.01v-1.2h-.5l-.51-.01v-.29c0-.22 0-.3.03-.37.09-.26.34-.37.8-.34a3 3 0 0 1 .25.02l.05.01v-1.14l-.05-.01a6.98 6.98 0 0 0-.9-.03ZM73.09 14.21v3.46h1.45v-6.92h-1.45v3.46ZM23.69 14.3v3.37h4.1v-1.35h-2.64v-5.38h-1.46v3.37ZM60.28 14.3v3.37h1.47v-2.8h2.7v2.8h1.48v-6.73h-1.48v2.6h-2.7v-2.6h-1.47v3.37ZM69.09 12.68c-1 .14-1.8.77-2.13 1.68-.1.29-.13.47-.13.88a2.52 2.52 0 0 0 2.13 2.53c.3.05.78.05 1.08 0a2.56 2.56 0 0 0 .21-5.02 3.4 3.4 0 0 0-1.16-.07Zm.73 1.32a1.22 1.22 0 0 1 .96 1.23 1.22 1.22 0 0 1-.67 1.14c-.35.16-.7.18-1.04.06-.18-.06-.31-.14-.46-.3a1.2 1.2 0 0 1-.33-.58 1.5 1.5 0 0 1 .03-.75c.11-.33.38-.62.7-.75.24-.1.55-.12.81-.05ZM77.7 12.68a2.55 2.55 0 0 0-2.23 3.03c.07.36.2.7.39 1 .12.17.44.5.62.62a3.13 3.13 0 0 0 2.23.4c.45-.09.9-.32 1.28-.69l.16-.15-.03-.04a34.9 34.9 0 0 0-.46-.45l-.43-.4-.11.1a1.37 1.37 0 0 1-1.65.21c-.13-.07-.35-.3-.43-.42a1.35 1.35 0 0 1-.02-1.3c.07-.15.32-.4.46-.48.17-.1.37-.15.57-.16.42-.03.76.1 1.07.4l.12.1.4-.4.45-.44.06-.06-.07-.07c-.19-.2-.51-.43-.77-.56a2.86 2.86 0 0 0-.66-.22 4.29 4.29 0 0 0-.95-.02ZM56.26 12.7c-1.13.16-1.92.9-2.14 1.98-.06.27-.06.82 0 1.1.06.37.22.76.43 1.04.56.75 1.61 1.1 2.77.9.53-.08 1-.31 1.37-.66l.15-.14-.4-.4-.4-.4-.1.07a1.7 1.7 0 0 1-.91.4c-.76.09-1.41-.27-1.5-.84l-.02-.08h3.55l.02-.1v-.32c0-1.32-.69-2.27-1.84-2.52a3.83 3.83 0 0 0-.98-.03Zm.66 1.14c.4.1.7.42.75.8v.1h-2.14v-.09a.95.95 0 0 1 .63-.75c.23-.08.54-.1.76-.06ZM46.9 12.7c-.22.04-.33.08-.48.15a.9.9 0 0 0-.31.22c-.09.1-.17.2-.2.26l-.07.12v-.65H44.4v4.87h1.43v-1.33c.02-1.5.01-1.44.15-1.73a.96.96 0 0 1 .65-.53 4.38 4.38 0 0 1 .84-.03l.08.02v-.67c0-.62 0-.67-.03-.68a4.55 4.55 0 0 0-.62-.02ZM85.98 12.72c-.4.07-.76.3-.9.6l-.06.07c-.01 0-.02-.13-.02-.3v-.3h-1.4V17.68H85l.01-1.46c0-1.34 0-1.48.04-1.58.08-.29.25-.5.47-.6.1-.06.13-.06.3-.06.18 0 .2 0 .31.06.2.1.3.25.38.52.03.12.03.2.03 1.63v1.5h1.43V16.2c.01-1.65 0-1.56.14-1.82a.88.88 0 0 1 .39-.37.68.68 0 0 1 .3-.04c.16 0 .19 0 .28.05.13.06.24.17.32.32.1.22.1.21.1 1.85v1.48h1.44l-.01-1.69c0-1.86 0-1.81-.12-2.17-.1-.3-.24-.52-.45-.72-.27-.25-.6-.37-1.06-.4-.74-.02-1.28.18-1.58.6l-.09.14s-.05-.05-.09-.12a1.24 1.24 0 0 0-.64-.52c-.25-.1-.64-.12-.92-.07ZM30.4 12.72l-.24.05c-1.2.24-1.99 1.37-1.89 2.68.04.52.17.9.44 1.3a2.4 2.4 0 0 0 2.47.94c.42-.09.78-.3.92-.58l.04-.07v.32l.01.31h1.43V12.8h-1.43v.3l-.01.3-.07-.1c-.1-.19-.37-.39-.7-.49a2.72 2.72 0 0 0-.97-.09Zm.83 1.32a1.22 1.22 0 0 1 .84 1.8c-.07.12-.31.37-.44.44-.22.12-.53.2-.77.17a1.23 1.23 0 0 1-1.14-1.08 1.3 1.3 0 0 1 .19-.8c.07-.12.25-.3.37-.37.26-.16.62-.23.95-.16ZM40.02 12.73a2.38 2.38 0 0 0-1.94 1.65c-.22.67-.16 1.48.14 2.09.3.6.84 1.04 1.5 1.2.85.2 1.77-.04 2.04-.53l.05-.1v.63h1.43V12.8h-1.42v.62l-.05-.1a1.1 1.1 0 0 0-.45-.4c-.19-.1-.35-.15-.59-.18-.19-.03-.51-.04-.7-.01Zm.89 1.31c.44.1.8.39.94.8.06.18.07.47.03.66-.09.4-.38.73-.77.87-.74.27-1.5-.12-1.69-.85a1.3 1.3 0 0 1 .15-.93c.12-.2.36-.4.58-.49.23-.09.53-.1.76-.06ZM50.01 12.72c-.53.06-1.05.31-1.43.7-.61.63-.85 1.6-.62 2.51.14.57.49 1.07.95 1.36.46.3 1.03.44 1.62.38.56-.04 1-.23 1.2-.5l.05-.08v.24c-.03.73-.33 1.13-.97 1.3-.2.05-.67.06-.9.02a3.23 3.23 0 0 1-.98-.36l-.15-.08-.33.53-.33.53.12.08c.16.1.55.3.72.35a4.46 4.46 0 0 0 2.37.12 2.46 2.46 0 0 0 1.33-.84c.18-.25.35-.64.42-1.02.08-.4.08-.37.09-2.82V12.8h-1.42v.63l-.04-.07c-.18-.4-.76-.66-1.43-.65l-.27.01Zm.96 1.35c.53.18.86.62.86 1.16 0 .61-.44 1.1-1.09 1.2-.37.05-.77-.07-1.05-.34-.15-.15-.25-.3-.31-.5a.88.88 0 0 1-.05-.36c0-.2 0-.25.05-.37.14-.43.46-.72.91-.82.17-.04.5-.03.68.03ZM81 15.24v2.43h1.43V12.8H81v2.44Z" fill="#5F5046"/></svg>