<svg width="84" height="13" fill="none" xmlns="http://www.w3.org/2000/svg"><g clip-path="url(#a)"><path d="M10.23 3.25C10.07 1.01 8.44 0 5.07 0 2.04 0 .22 1.2.22 3.14c0 1.08.45 1.9 1.32 2.37.64.35 1.27.54 3.04.92 1.87.38 2 .44 2.03.94.03.53-.45.84-1.28.84-.99 0-1.44-.35-1.55-1.2H0c.21 2.45 1.96 3.65 5.39 3.65 3.16 0 5.12-1.36 5.12-3.56 0-1.84-1.07-2.68-4.1-3.22-2.04-.36-2.3-.47-2.3-.97 0-.4.38-.61 1.11-.61.91 0 1.25.23 1.39.94l3.62.01Zm8.59 2.1c0 1.48-.6 2.25-1.77 2.25-1.15 0-1.75-.81-1.75-2.32 0-1.47.65-2.33 1.75-2.33 1.2 0 1.77.78 1.77 2.4Zm3.99.06c0-3.25-1.8-5.4-4.51-5.4-1.33 0-2.23.4-3.03 1.36V.3h-3.83V13h3.99V9.3c.8.97 1.72 1.39 3 1.39 2.67 0 4.38-2.06 4.38-5.28Zm4.64-1.2c.21-1.15.87-1.74 1.92-1.74 1.1 0 1.75.59 1.84 1.75h-3.76Zm-.01 1.95h7.67v-.27c0-3.56-2.24-5.89-5.67-5.89-3.43 0-5.82 2.24-5.82 5.43 0 3.14 2.35 5.23 5.88 5.23 2.21 0 4.03-.9 4.94-2.35l-3.02-1.37c-.6 1.07-1.2 1.23-1.95 1.23-1.23.02-1.95-.7-2.03-2.01ZM40.08.27h-3.83V10.4h3.99V4.83c0-1.12.56-1.74 1.56-1.74.93 0 1.36.5 1.36 1.66v5.65h4V4.2c0-1.43-.2-2.2-.72-2.87A3.87 3.87 0 0 0 43.37 0c-1.4 0-2.35.44-3.3 1.52l.01-1.25Zm12.57 0h-3.83V10.4h3.99V4.83c0-1.12.56-1.74 1.57-1.74.92 0 1.35.5 1.35 1.66v5.65h4V4.2c0-1.43-.2-2.2-.72-2.87A3.87 3.87 0 0 0 55.94 0c-1.4 0-2.35.44-3.29 1.52V.27Zm11.99 3.95c.2-1.16.87-1.75 1.92-1.75 1.1 0 1.75.59 1.83 1.75h-3.75Zm-.03 1.94h7.67v-.27c0-3.56-2.24-5.89-5.67-5.89-3.43 0-5.82 2.24-5.82 5.43 0 3.14 2.35 5.23 5.88 5.23 2.21 0 4.03-.9 4.94-2.35L68.6 6.95c-.6 1.07-1.19 1.24-1.95 1.24-1.24 0-1.96-.71-2.04-2.03ZM84 4.38v-.2c0-1.42-.2-2.2-.71-2.86A3.87 3.87 0 0 0 80.22 0c-1.4 0-2.27.38-3 1.52V.27H73.4V10.4h3.99V4.83c0-1.12.26-1.74 1.27-1.74.93 0 1.36.5 1.36 1.66V6.2L84 4.38Z" fill="#004B91"/></g><defs><clipPath id="a"><path fill="#fff" d="M0 0h84v13H0z"/></clipPath></defs></svg>