<svg width="84" height="27" fill="none" xmlns="http://www.w3.org/2000/svg"><path d="M5.2 13.86v-.05c0-.19-.14-.34-.34-.34H1.65c-.9 0-1.65-.73-1.65-1.65V7.3c0-.9.73-1.65 1.65-1.65h3.21c.2 0 .34-.15.34-.34V.8c0-.2.15-.34.34-.34h1.92c.2 0 .34.14.34.34v5.8c0 .9-.73 1.66-1.65 1.66H2.94c-.2 0-.34.15-.34.34V10.53c0 .2.15.34.34.34H6.18c.9 0 1.65.73 1.65 1.66V20.96c0 .2.14.34.34.34H15.29c.2 0 .34-.14.34-.34v-4.52c0-.2.15-.34.34-.34h1.92c.2 0 .34.15.34.34v5.81c0 .9-.73 1.65-1.65 1.65H6.86c-.9 0-1.66-.73-1.66-1.65v-8.39Zm15.64 0v-.05c0-.19-.15-.34-.34-.34h-3.21c-.9 0-1.66-.73-1.66-1.65V3.4c0-.2-.14-.34-.34-.34H13.37c-.2 0-.34.14-.34.34V18.3c0 .2-.14.34-.34.34h-1.92a.33.33 0 0 1-.34-.34V2.1c0-.9.73-1.66 1.65-1.66h4.53c.9 0 1.65.73 1.65 1.66V10.53c0 .2.14.34.34.34h3.21c.9 0 1.65.73 1.65 1.66v11c0 .2-.14.35-.34.35H21.2a.33.33 0 0 1-.34-.34v-9.68h-.02Z" fill="#43B02A"/><path d="M37.2 24.49c0 1.02-.9 1.97-2.46 1.97h-.46c-1.53 0-2.43-.78-2.55-1.6l-.03-.16 1.66-.14.07.1c.1.2.34.31.75.31h.37c.46 0 .85-.24.85-.75v-.6c-.34.21-.73.3-1.12.3h-.7c-1.22 0-1.88-1.01-1.88-2.08v-2.85c0-1.1.66-2.09 1.88-2.09h.6c.59 0 1.15.24 1.6.66l.2-.59h1.22v7.52ZM35.4 22v-3.16a1.18 1.18 0 0 0-.83-.37h-.39c-.36 0-.7.24-.7.76v2.38c0 .5.32.75.68.75h.36c.32 0 .66-.14.88-.36ZM41.91 18.55h-.85c-.44 0-.9.18-1.19.47v4.84H38.1V17h1.21l.2.66a2.8 2.8 0 0 1 1.82-.73h.58v1.63ZM49.7 2.97h-1.07c-2.2 0-3.43 1.39-3.43 2.9v4.2c0 1.5 1.26 2.9 3.43 2.9h1.07c2.09 0 3.28-1.4 3.28-2.9v-4.2c0-1.51-1.2-2.9-3.28-2.9Zm.75 6.69c0 .73-.49 1.07-1.07 1.07h-.6c-.6 0-1.08-.34-1.08-1.07v-3.4c0-.71.49-1.08 1.07-1.08h.6c.6 0 1.08.37 1.08 1.07v3.4Zm-9-6.69h-.68c-.68 0-1.33.22-1.92.56V.44h-2.53v12.4h2.53v-7.1c.34-.34.8-.56 1.3-.56h.36c.55 0 1 .32 1 1.05v6.61h2.52v-7c0-1.5-.9-2.87-2.58-2.87ZM34.23.44h-1.72l-.76 2.63h-1.12V5.3h1.07v7.56h2.53V5.3h1.34V3.07h-1.34V.44Zm45.13 5.47V5.7c0-.34.36-.48.7-.48h.54c.41 0 .8.27.8.8v.17h2.36v-.27A2.85 2.85 0 0 0 80.74 3h-1c-1.92 0-3 1.21-3 2.55v.5c0 2.88 4.83 2.95 4.83 3.9v.2c0 .38-.41.58-.95.58h-.6c-.57 0-1.03-.27-1.03-.8v-.2h-2.5v.39c0 1.46 1.14 2.84 3.23 2.84h1.07c2 0 3.21-1.29 3.21-2.65v-.43c.02-3.1-4.64-2.97-4.64-3.97Zm-6.88-2.94h-.86c-2.09 0-3.28 1.46-3.28 3.07v.24h2.53v-.12c0-.64.41-.95.9-.95h.49c.5 0 .95.36.95 1.07v.58l-1.93.22c-1.67.2-3.35 1-3.35 2.65v.75c0 1.3.97 2.5 2.75 2.5h.8c.75 0 1.55-.33 2.24-.92l.26.8h1.73V6.09c.02-1.65-1.17-3.1-3.23-3.1Zm.75 7.2c-.39.36-1 .56-1.58.56h-.46c-.37 0-.7-.22-.7-.64V9.8c0-.46.55-.8 1.18-.87l1.56-.22v1.46Zm-8.78-7.2h-.68c-.92 0-1.8.37-2.5 1-.42-.6-1.1-1-2-1h-.68c-.9 0-1.72.37-2.45.95l-.27-.85h-1.73v9.77h2.5v-7.1c.35-.34.81-.56 1.3-.56h.36c.56 0 1 .32 1 1.05v6.61h2.53V5.72c.31-.32.8-.54 1.29-.54h.36c.54 0 1 .32 1 1.05v6.61H67v-7c.02-1.5-.88-2.87-2.56-2.87ZM44.51 17v4.67c0 .5.32.73.71.73h.27c.34 0 .68-.15.9-.37V17h1.77v6.88h-1.21l-.2-.58c-.48.41-1.1.65-1.7.65h-.49c-1.19 0-1.8-.95-1.8-2.04V17h1.75ZM50.28 17l.17.56a2.4 2.4 0 0 1 1.55-.63h.69c1.21 0 1.87 1 1.87 2.09v2.87c0 1.09-.66 2.09-1.87 2.09h-.66c-.41 0-.83-.13-1.2-.34v2.84h-1.77V17h1.22Zm.56 1.85V22c.22.22.53.36.85.36h.36c.4 0 .7-.24.7-.75v-2.38c0-.52-.3-.76-.7-.76h-.36c-.3 0-.63.15-.85.37ZM56.57 17l.17.56a2.4 2.4 0 0 1 1.56-.63h.68c1.22 0 1.87 1 1.87 2.09v2.87c0 1.09-.65 2.09-1.87 2.09h-.63c-.41 0-.83-.13-1.2-.34v2.84h-1.77V17h1.2Zm.56 1.85V22c.22.22.54.36.85.36h.37c.39 0 .7-.24.7-.75v-2.38c0-.52-.31-.76-.7-.76h-.37c-.29 0-.63.15-.85.37ZM63.43 21.04v.6c0 .51.34.76.75.76h.42c.41 0 .75-.22.75-.7v-.06h1.78v.34c0 1.02-.83 1.97-2.31 1.97h-.76c-1.53 0-2.4-.97-2.4-2.04v-2.94c0-1.07.87-2.04 2.4-2.04h.76c1.46 0 2.3.97 2.3 2.04v2.07h-3.69Zm0-1.37h1.92v-.43c0-.49-.34-.76-.75-.76h-.42c-.4 0-.75.25-.75.76v.43Z" fill="#53565A"/></svg>