<svg width="85" height="14" fill="none" xmlns="http://www.w3.org/2000/svg"><g clip-path="url(#a)" fill="#0073AB"><path d="M.83 7v6.02h15.23V1h-4.02v10.8l-.8-.04-.79-.04-.04-5.37L10.38 1H6.51v10.79H4.85V.98H.84v6.03ZM18 2.65V4.3h3.87V.99H18v1.66ZM23.81 3.13v2.15h-1.38v1.38h1.39v6.36h4V6.66h1.39v6.36h4.01V6.66h1.53V5.28h-.68c-.49 0-.7-.06-.76-.22a17.6 17.6 0 0 1-.09-2.15V1h-3.94V5.2l-.72.04-.73.04V.99h-4.01v2.14ZM46.93 7v6.02h3.86l.04-1.42.05-1.41.66-.05.65-.04v2.92h3.88V8.46h-1.25c-.68 0-1.25-.06-1.25-.13s.67-.79 1.5-1.59l1.48-1.46h-2.49l-1.55 1.45c-.85.8-1.58 1.45-1.62 1.45-.04 0-.08-1.62-.08-3.6V.98h-3.88v6.03ZM57.73 2.65V4.3h3.87V.99h-3.87v1.66ZM80.3 3.13v2.15H74.75v7.74h9.4V1H80.3v2.14Zm0 6.09v2.56h-1.53V6.66h1.52v2.56ZM18 9.15v3.87h3.87V5.28H18v3.87ZM35.58 8.08c0 1.55-.04 3.3-.08 3.88l-.1 1.06H45v-1.24h-5.4v-1.11H45v-5.4h-9.42v2.81Zm5.5-.15-.03 1.29-.72.04-.74.04V6.66h1.54l-.04 1.27ZM57.73 9.15v3.87h3.87V5.28h-3.87v3.87ZM63.27 9.15v3.87h3.87V6.66h1.94v6.36h4.01V5.28h-9.82v3.87Z"/></g><defs><clipPath id="a"><path fill="#fff" transform="translate(0 .44)" d="M0 0h85v13H0z"/></clipPath></defs></svg>