<svg width="86" height="28" fill="none" xmlns="http://www.w3.org/2000/svg"><path d="M0 2.7V5h2.7V2.5h5.6c0 .2-1.8 2.9-4 6.2-3.8 5.5-4 6-4 7V17h11.4V12.2H9.3v2.5h-6l4.2-6.2c3.6-5.3 4.2-6.3 4.2-7v-1H0v2.2ZM15.1 1.5c0 1 0 1 1 1h1l.2 6.1v6H15v1l.1 1.1 6 .1h5.8V12h-2.4v2.7H20V2.5h2v-2H15v1Z" fill="#008687"/><path d="M.3 22.2c0 .8.2 1.1.5 1.2.3 0 .4 0 .4-.5 0-.6.1-.7.8-.7.8 0 .9-.1-.8 2.4-.7 1-1.2 2-1.2 2.3 0 .4.1.4 2.4.4H5v-1c0-1 0-1.2-.6-1.2-.4 0-.5.2-.5.6 0 .4-.2.6-.8.6-1 .1-1 0 .7-2.5a7 7 0 0 0 1.1-2.2c0-.3-.5-.4-2.3-.5H.2v1.1ZM46.4 21.5c0 .2 0 .4.3.6.5.4.6 4.3 0 4.3-.2 0-.4.1-.3.4 0 .3.3.4 1.3.5 1.2 0 1.3 0 1.3-.4 0-.3 0-.5-.2-.5-.1 0-.3-.3-.3-.5-.2-.7 0-.6 1 .5.6.7 1 1 1.5 1s.7-.2.7-.5-.1-.5-.3-.5c-.2 0-.6-.3-.9-.7L50 25l.6-.6.8-.5c.2 0 .3-.2.3-.5 0-.4-.2-.4-1.4-.4s-1.5 0-1.4.3c0 .2.2.5.4.6.2.2.2.3-.2.5-.5.3-.5.2-.6-1.5v-1.7h-1c-.6 0-1 0-1.1.3ZM54.4 21.7c0 .3.1.5.3.5.3 0 .4.4.4 2 0 1.5 0 2-.4 2-.2 0-.3.1-.3.5v.6h5.1V26c0-1.3 0-1.5-.5-1.5-.3 0-.4.2-.5 1 0 .8-.2.8-.9 1h-.8v-2c0-1.3.1-2.2.3-2.2.1 0 .2-.2.2-.5 0-.5-.1-.6-1.5-.6-1.3 0-1.4 0-1.4.6ZM61 21.5c0 .6.4.8.9.4.4-.4.2-.9-.5-.9-.3 0-.4.2-.4.5ZM62.8 21.3c-.2.3.5 1 .8.8.2 0 .3-.4.3-.6 0-.5-.8-.7-1.1-.2ZM65.1 21.7c0 .3.2.5.4.5.3 0 .3.4.3 2 0 1.5 0 2-.3 2-.2.2-.4.4-.4.7 0 .4.2.4 2 .4 1.6 0 2-.1 2.4-.5.6-.6.7-2.5.1-3.3-.3-.5-.6-.6-1.5-.5l-1 .1v-2h-1c-.9 0-1 0-1 .6Zm3.5 3c.1.3 0 .8-.2 1.1-.4.6-.4.6-.9.2-.5-.5-.6-1.2 0-1.7.4-.4 1-.2 1.1.4ZM80 21.5c0 .2 0 .4.3.6.6.4.6 4.3 0 4.3-.2 0-.3.1-.3.4 0 .3.4.4 1.4.5 1.2 0 1.3 0 1.3-.4 0-.3-.1-.5-.3-.5l-.2-.6c0-.4.1-.4.9.5.6.8 1 1 1.5 1 .6 0 .8 0 .8-.4 0-.3-.2-.5-.4-.5-.1 0-.5-.3-.8-.7l-.5-.7.5-.6.9-.5c.1 0 .3-.2.3-.5 0-.4-.2-.4-1.4-.4s-1.3 0-1.3.4c0 .3.1.5.2.5.2 0 .2.2 0 .4-.5.7-.7.4-.7-1.4V21h-1c-.6 0-1 .1-1.2.4ZM29 21.8c-.4.3-.7.7-.7.9 0 .1-.1.3-.3.3l-.2.4c0 .3.1.5.2.5.2 0 .3.7.3 1.5 0 1.6.3 2 1.4 1.9.5 0 .7-.2.7-.6 0-.4 0-.6-.3-.6s-.3-.2-.3-1c0-.9 0-1.2.3-1.2.2 0 .4-.2.4-.5 0-.2-.2-.4-.4-.4s-.3-.4-.4-.9v-.8l-.7.5ZM5.9 23.6c-1.2 1.5-.3 3.7 1.6 3.7.9 0 2-.5 2-1 0-.3-1-.4-1.4-.1-.4.2-.7.2-1 0-.9-.6-.6-.8 1-.8 1 0 1.7-.1 1.7-.2 0-.6-.6-1.8-1-2L7.3 23c-.7 0-1 .1-1.4.6Zm2.2.7c.1.3 0 .4-.7.4s-.8 0-.6-.4c.2-.2.5-.4.8-.4.2 0 .4.2.5.4ZM10 23.5c0 .2.2.4.4.4.5 0 .5 2.2 0 2.4-.2 0-.4.3-.4.6 0 .4.2.4 1.3.4 1.2 0 1.4 0 1.4-.4 0-.3-.2-.6-.4-.6-.3-.1-.3-.4-.3-1 0-.8.2-1 .6-1 .4 0 .4.2.5 1.5v1.5h1c.9 0 1 0 1-.4 0-.3-.1-.6-.4-.6-.5-.2-.3-2 .2-2 .4-.2.4 0 .5 1.4v1.5h1.1c1 .2 1 .1 1-.3 0-.3-.1-.5-.3-.5-.3 0-.4-.3-.4-1.4 0-.8 0-1.6-.3-1.8-.3-.3-1.3-.3-1.9 0H14l-2-.2c-1.8 0-2 0-2 .5ZM18.4 23.6c-.8.8-.8 2.3 0 3.1.8.8 2.3.9 3 .2.6-.5.6-.6.3-.8-.5-.3-.9-.3-1 0-.4.4-1.2.3-1.4-.2-.3-.5-.2-.5 1.3-.5.9 0 1.6-.1 1.6-.2 0-.6-.6-1.8-1-2-.8-.5-2.2-.3-2.8.4Zm2.2.7c0 .3 0 .4-.6.4-.7 0-1-.3-.6-.6.3-.3 1-.2 1.2.2ZM22.4 23.5c0 .2.2.4.4.4.3 0 .4.3.4 1.2 0 1-.1 1.3-.4 1.3-.2 0-.4.2-.4.5 0 .4.2.4 1.4.4 1.1 0 1.3 0 1.3-.4 0-.3-.2-.6-.4-.6-.2-.1-.3-.4-.3-1 0-.8.2-1 .7-1 .5-.2.5 0 .5 1.4v1.6h1c.8 0 1 0 1-.4 0-.3-.1-.5-.3-.5-.1 0-.2-.5-.2-1.1a6 6 0 0 0-.3-1.7c-.2-.6-.3-.6-2.3-.6-1.9 0-2 0-2 .5ZM30.7 23.4c0 .3.1.5.2.5.2 0 .5.8.8 1.7.5 1.6.6 1.7 1.2 1.7s.7 0 1-1.2c.3-1.4.5-1.4.9.1.2.9.3 1 .9 1 .7 0 .7-.1 1.2-1.6.3-1 .6-1.7.8-1.7.2 0 .3-.2.3-.5 0-.4-.1-.4-1-.4-1 0-1.2 0-1.2.4 0 .3.1.5.3.6.3 0 0 1.4-.3 1.4l-.2-.3-.3-1.2c-.2-.8-.3-1-.8-.9-.6 0-.7.3-1 1.3-.5 1.1-.5 1.2-.7.6l.1-1.3.3-.6h-1.3c-1 0-1.2 0-1.2.4ZM38.8 23.4c-1.5 1.5-.6 4 1.4 4 .6 0 1.2-.3 1.6-.6l.7-.5-.6-.2c-.3-.2-.7-.1-1.1 0-.6.4-1.3.2-1.3-.3 0-.3.3-.4 1.5-.4h1.5l-.2-.8c0-.4-.4-1-.6-1.2-.7-.6-2.3-.6-3 0Zm2.1 1c0 .2-.1.3-.6.3-.8 0-1-.3-.6-.6.2-.3 1.1-.1 1.2.2ZM42.9 23.4c0 .3.2.5.3.5l.2 1.2c0 1 0 1.3-.3 1.3-.2 0-.3.1-.2.5 0 .4.3.4 1.4.4 1.1 0 1.3 0 1.3-.4 0-.3-.2-.5-.4-.5s-.3-.3-.3-.7c0-.8.5-1.5 1.1-1.5.2 0 .3-.3.3-.6 0-.8-.5-.8-1.2-.2-.4.3-.5.3-.5 0s-.2-.4-1-.4c-.7 0-.8 0-.7.4ZM60 23.4c0 .3.1.5.2.5.2 0 .3.6.3 1.3 0 2 .2 2 2.4 2 1.8.1 2 0 2-.4 0-.2-.1-.4-.3-.4-.1 0-.2-.8-.2-1.7V23h-1c-.8 0-1 0-1 .4 0 .3.2.5.3.5.1 0 .2.4.2 1 0 .8-.2 1.1-.5 1.2-.4 0-.5-.1-.5-1.5V23h-1c-.7 0-1 0-1 .4ZM71.2 23.4c-1 1-1 2.5 0 3.5.7.7 2.2.6 3-.1l.8-.6-.6-.2c-.3-.1-.7 0-.9.1-.4.4-1.6.1-1.6-.3 0-.3.4-.4 1.5-.4 1.4 0 1.5 0 1.5-.6 0-.3-.2-.8-.5-1.2-.5-.5-.7-.6-1.6-.6-.8 0-1.2.1-1.6.4Zm2.2 1c0 .2-.2.3-.7.3-.7 0-1-.3-.6-.6.3-.3 1.1-.1 1.3.2ZM76 23.6c-.7.6-.9 2.1-.3 2.8.8 1 2.4 1.2 3.4.4.8-.6.8-.8 0-1.1-.4-.2-.5-.2-.7 0 0 .3-.4.4-.8.4-.6-.1-.7-.2-.7-1 0-.7.1-.8.6-.9.3 0 .8.1 1 .3.7.6 1.2.3 1.2-.7V23h-1.5c-1.4 0-1.7 0-2.2.6Z" fill="#000"/></svg>