<svg width="84" height="47" fill="none" xmlns="http://www.w3.org/2000/svg"><path fill-rule="evenodd" clip-rule="evenodd" d="M7.74 30.02h3.54V5.8H7.74v24.23ZM71.27 36.93h2.38v-7.42c0-2.44.7-3.39 1.39-3.39.67 0 1.25.77 1.25 2.87v7.94h2.35v-7.42c0-2.42.68-3.35 1.38-3.35.7 0 1.25.79 1.25 2.83v7.96h2.35V27.9c0-2.54-.49-3.9-1.22-4.74-.4-.48-.96-.78-1.52-.78-1 0-1.93.8-2.55 2.2-.56-1.4-1.46-2.19-2.32-2.19-.73 0-1.73.7-2.36 2.06v-1.88h-2.38v14.35ZM69.6 29.76c0-4.23-1.74-7.36-4.2-7.36-2.49 0-4.2 3.1-4.2 7.39 0 4.23 1.78 7.37 4.18 7.37 1.55 0 3.05-1.44 3.9-3.74l-1.56-1.76c-.58 1.54-1.38 2.27-2.17 2.27-1.03 0-1.9-1.35-2.02-3.3h6.05c.03-.3.03-.6.03-.87Zm-5.93-1.96c.3-1.54 1.02-2.36 1.72-2.36s1.4.82 1.68 2.36h-3.4ZM59.28 35.84v-5.89c-1.08 1.71-2.54 2.63-3.75 2.63-2.38 0-4.26-2.93-4.26-7.73 0-4.71 1.89-7.68 4.24-7.68 1.28 0 2.7.94 3.75 2.6V13.9a5.59 5.59 0 0 0-3.64-1.46c-4.08 0-7.14 5-7.14 12.5 0 4.57 1.18 8.17 3 10.3a5.42 5.42 0 0 0 4.07 2.08 5.5 5.5 0 0 0 3.73-1.48ZM41.07 30.05h2.83V24.2c0-2.18.27-2.86.56-3.37.38-.64.94-1.06 1.61-1.06.4 0 .79.16 1.14.44v-4.63c-1.17.14-2.38.99-3.32 2.51v-2.4h-2.83v14.36h.01ZM40.1 22.86c0-4.24-2.12-7.37-5.07-7.37-3.01 0-5.11 3.1-5.11 7.4 0 4.24 2.15 7.38 5.05 7.38 1.88 0 3.7-1.44 4.73-3.74l-1.9-1.78c-.69 1.55-1.65 2.27-2.62 2.27-1.23 0-2.3-1.35-2.43-3.29h7.3c.03-.3.05-.59.05-.87Zm-7.2-1.97c.36-1.55 1.23-2.38 2.09-2.38.85 0 1.69.83 2.03 2.38H32.9ZM25 30.05h2.87V18.86h1.75v-3.65H27.9V11.4H25v3.82h-1.03v3.65H25v11.2ZM13.37 30.05h2.89v-6.74c0-3.03 1.02-4.1 2.01-4.1.93 0 1.75.88 1.75 3.44v7.4h2.87v-7.4c0-3.33-.36-4.44-.74-5.2-.57-1.2-1.51-1.94-2.63-1.94-.76 0-1.28.2-2.09.84-.43.33-.82.76-1.19 1.25V15.7h-2.87v14.36Z" fill="#0A0A0A"/><path fill-rule="evenodd" clip-rule="evenodd" d="M80.25 19.5h3.41V5.8H71.22a20.33 20.33 0 0 1 2.24 2.04l1.78-1.54c1.2 1.26 2.2 2.65 2.98 4.19l-2.05 1.45a15.03 15.03 0 0 1 1.24 4.4l2.53-.88c.21 1.12.32 2.27.32 3.43l-.01.62ZM65.49.26A18.11 18.11 0 0 1 70.73 2l-1.47 2.54a15.45 15.45 0 0 0-4.16-1.37l.4-2.92Zm-8.6.6C58.65.28 60.5 0 62.42 0v2.93c-1.6 0-3.14.24-4.6.7L56.88.85ZM49.3 5.53l.2-.2a18.09 18.09 0 0 1 4.18-3.12l1.36 2.6a15.08 15.08 0 0 0-3.71 2.85L49.3 5.53Zm.9 4.6-3.94-2.1.2 4.99 3.73-2.88ZM17.35 46.9a17.74 17.74 0 0 0 5.49-.62l-.91-2.8c-1.4.37-2.86.54-4.36.48l-.22 2.94Zm-9.95-2.77a17.93 17.93 0 0 0 5 2.55l.9-2.79a15.6 15.6 0 0 1-4.14-2.1l-1.76 2.34ZM1.62 37.1l.13.25c.8 1.6 1.78 3.02 2.97 4.3l2.11-2.02a15.3 15.3 0 0 1-2.6-3.88l-2.6 1.35Zm2.79-5.01L0 32.83l1.78-4.65 2.63 3.9ZM27.06 43.9a17.66 17.66 0 0 0 3.88-3.93l-2.46-1.6a15.06 15.06 0 0 1-3.08 3.1l1.66 2.43ZM84 19.73 84 5.48H62.1v14.35l21.89-.1Z" fill="#009FE3"/></svg>